<svg xmlns="http://www.w3.org/2000/svg" width="20.241" height="20.159" viewBox="0 0 20.241 20.159">
  <g id="noun-building-3560825" transform="translate(-176.394 -107.806)">
    <path id="Path_17949" data-name="Path 17949" d="M266,240.8h1.959v1.959H266Z" transform="translate(-84.382 -125.241)" fill="#1453cc"/>
    <path id="Path_17950" data-name="Path 17950" d="M266,330.4h1.959v1.959H266Z" transform="translate(-84.382 -209.618)" fill="#1453cc"/>
    <path id="Path_17951" data-name="Path 17951" d="M196.054,116.933l-3.591-2.393a1.306,1.306,0,0,0-1.449,0l-2.213,1.472v-3.229a1.306,1.306,0,0,0-.522-1.045l-4.9-3.673a1.306,1.306,0,0,0-1.567,0l-4.9,3.673a1.306,1.306,0,0,0-.522,1.045v15.18h20.241V118.02a1.306,1.306,0,0,0-.581-1.087Zm-9.213,9.072h-8.488v-12.9l4.244-3.183,4.244,3.183Zm7.835,0H188.8V118.37l2.938-1.959,2.938,1.959Z" fill="#1453cc"/>
  </g>
</svg>
