<svg xmlns="http://www.w3.org/2000/svg" width="56.442" height="72.282" viewBox="0 0 56.442 72.282">
  <g id="noun-list-1559749" transform="translate(-153.498 -27.5)">
    <path id="Path_17772" data-name="Path 17772" d="M158.75,28A4.777,4.777,0,0,0,154,32.752V94.529a4.777,4.777,0,0,0,4.752,4.752h45.937a4.777,4.777,0,0,0,4.752-4.752V32.752A4.777,4.777,0,0,0,204.687,28Zm0,3.168h45.937a1.547,1.547,0,0,1,1.584,1.584V94.529a1.547,1.547,0,0,1-1.584,1.584H158.75a1.547,1.547,0,0,1-1.584-1.584V32.752a1.547,1.547,0,0,1,1.584-1.584Zm6.216,11.88a1.584,1.584,0,1,0,0,3.168h32.968a1.584,1.584,0,1,0,0-3.168Zm0,12.672a1.584,1.584,0,1,0,0,3.168h32.968a1.584,1.584,0,1,0,0-3.168Zm0,12.672a1.584,1.584,0,1,0,0,3.168h32.968a1.584,1.584,0,1,0,0-3.168Zm0,12.672a1.584,1.584,0,1,0,0,3.168h32.968a1.584,1.584,0,1,0,0-3.168Z" fill="#bababa" stroke="#bababb" stroke-width="1"/>
  </g>
</svg>
