<svg id="noun-edit-3551034" xmlns="http://www.w3.org/2000/svg" width="18.404" height="18.403" viewBox="0 0 18.404 18.403">
  <path id="Path_17785" data-name="Path 17785" d="M276.249,106.4a3.387,3.387,0,0,0-2.41,1l-6.18,6.183a5.6,5.6,0,0,0-1.653,3.989v2.484h2.484a5.6,5.6,0,0,0,3.986-1.653l6.186-6.18a3.411,3.411,0,0,0-2.413-5.821Zm1.152,4.559-6.18,6.183a3.834,3.834,0,0,1-2.731,1.131h-.7v-.7a3.834,3.834,0,0,1,1.131-2.728l6.183-6.183a1.63,1.63,0,0,1,2.3,2.3Z" transform="translate(-261.256 -106.4)" fill="#1453cc"/>
  <path id="Path_17786" data-name="Path 17786" d="M179.663,146.016h10.686a3.265,3.265,0,0,0,3.265-3.265V138h-1.781v4.749a1.484,1.484,0,0,1-1.484,1.484H179.663a1.484,1.484,0,0,1-1.484-1.484V132.065a1.484,1.484,0,0,1,1.484-1.484h4.749V128.8h-4.749a3.265,3.265,0,0,0-3.265,3.265V142.75a3.265,3.265,0,0,0,3.265,3.265Z" transform="translate(-176.398 -127.613)" fill="#1453cc"/>
</svg>
