<svg xmlns="http://www.w3.org/2000/svg" width="17.901" height="21.923" viewBox="0 0 17.901 21.923">
  <g id="noun-document-1058490" transform="translate(-118.368 -78.156)">
    <path id="Path_17945" data-name="Path 17945" d="M200.31,99.829a3.586,3.586,0,0,0,3.576-3.576V84.365c0-.06-.03-.089-.06-.149a.029.029,0,0,0-.03-.03.409.409,0,0,0-.089-.119l-5.781-5.483a.412.412,0,0,0-.119-.089.029.029,0,0,1-.03-.03c-.06-.03-.089-.03-.149-.06H190.06a3.586,3.586,0,0,0-3.576,3.576V96.224A3.586,3.586,0,0,0,190.06,99.8h10.25ZM198.1,80.4l3.695,3.456H198.1ZM187.676,96.254V82.011a2.391,2.391,0,0,1,2.384-2.384h6.853v4.857a.6.6,0,0,0,.6.6h5.185V96.253a2.391,2.391,0,0,1-2.384,2.384H190.06a2.391,2.391,0,0,1-2.384-2.384Z" transform="translate(-67.866)" fill="#fff" stroke="#fff" stroke-width="0.5"/>
    <path id="Path_17946" data-name="Path 17946" d="M257.077,289.034h4.916a.6.6,0,0,0,0-1.192h-4.916a.6.6,0,1,0,0,1.192Z" transform="translate(-134.138 -198.293)" fill="#fff" stroke="#fff" stroke-width="0.5"/>
    <path id="Path_17947" data-name="Path 17947" d="M257.077,367.994h8.79a.6.6,0,0,0,0-1.192h-8.79a.6.6,0,1,0,0,1.192Z" transform="translate(-134.138 -273.051)" fill="#fff" stroke="#fff" stroke-width="0.5"/>
  </g>
</svg>
