<svg width="0" height="0" class="hidden" aria-hidden="true">
  <symbol id="big-building-icon" xmlns="http://www.w3.org/2000/svg" viewBox="0 0 20.241 20.159">
    <g transform="translate(-176.394 -107.806)">
      <path id="Path_17949" data-name="Path 17949" d="M266,240.8h1.959v1.959H266Z" transform="translate(-84.382 -125.241)" fill="currentColor"/>
      <path id="Path_17950" data-name="Path 17950" d="M266,330.4h1.959v1.959H266Z" transform="translate(-84.382 -209.618)" fill="currentColor"/>
      <path id="Path_17951" data-name="Path 17951" d="M196.054,116.933l-3.591-2.393a1.306,1.306,0,0,0-1.449,0l-2.213,1.472v-3.229a1.306,1.306,0,0,0-.522-1.045l-4.9-3.673a1.306,1.306,0,0,0-1.567,0l-4.9,3.673a1.306,1.306,0,0,0-.522,1.045v15.18h20.241V118.02a1.306,1.306,0,0,0-.581-1.087Zm-9.213,9.072h-8.488v-12.9l4.244-3.183,4.244,3.183Zm7.835,0H188.8V118.37l2.938-1.959,2.938,1.959Z" fill="currentColor"/>
    </g>
  </symbol>
  <symbol id="tick-icon" xmlns="http://www.w3.org/2000/svg" viewBox="0 0 15.139 12.225">
    <g transform="translate(-5.892 -6.935)">
      <path id="Path_17901" data-name="Path 17901" d="M293.726,252.584l9.657-10.182h0a1.175,1.175,0,1,0-1.7-1.613l-7.918,8.341-3.047-3.376h0a1.175,1.175,0,1,0-1.746,1.566Z" transform="translate(-282.736 -233.423)" fill="currentColor"/>
    </g>
  </symbol>
  <symbol id="folded-document-icon" xmlns="http://www.w3.org/2000/svg" viewBox="0 0 17.901 21.923">
    <g transform="translate(-118.368 -78.156)">
      <path id="Path_17945" data-name="Path 17945" d="M200.31,99.829a3.586,3.586,0,0,0,3.576-3.576V84.365c0-.06-.03-.089-.06-.149a.029.029,0,0,0-.03-.03.409.409,0,0,0-.089-.119l-5.781-5.483a.412.412,0,0,0-.119-.089.029.029,0,0,1-.03-.03c-.06-.03-.089-.03-.149-.06H190.06a3.586,3.586,0,0,0-3.576,3.576V96.224A3.586,3.586,0,0,0,190.06,99.8h10.25ZM198.1,80.4l3.695,3.456H198.1ZM187.676,96.254V82.011a2.391,2.391,0,0,1,2.384-2.384h6.853v4.857a.6.6,0,0,0,.6.6h5.185V96.253a2.391,2.391,0,0,1-2.384,2.384H190.06a2.391,2.391,0,0,1-2.384-2.384Z" transform="translate(-67.866)" fill="currentColor" stroke="currentColor" stroke-width="0.5"/>
      <path id="Path_17946" data-name="Path 17946" d="M257.077,289.034h4.916a.6.6,0,0,0,0-1.192h-4.916a.6.6,0,1,0,0,1.192Z" transform="translate(-134.138 -198.293)" fill="currentColor" stroke="currentColor" stroke-width="0.5"/>
      <path id="Path_17947" data-name="Path 17947" d="M257.077,367.994h8.79a.6.6,0,0,0,0-1.192h-8.79a.6.6,0,1,0,0,1.192Z" transform="translate(-134.138 -273.051)" fill="currentColor" stroke="currentColor" stroke-width="0.5"/>
    </g>
  </symbol>
  <symbol id="send-icon" xmlns="http://www.w3.org/2000/svg" viewBox="0 0 17.58 19.439">
    <g id="noun-submit-4974725" transform="translate(-84.86 -140.607)">
      <path id="Path_17948" data-name="Path 17948" d="M231.458,150.726l-5.131.2a2.635,2.635,0,0,0-2.39,1.794l-1.452,4.421v.131a2.775,2.775,0,0,0,4.168,2.4l5.34-3.074a.819.819,0,1,0-.816-1.419l-5.348,3.116a1.142,1.142,0,0,1-1.7-.873l1.362-4.152h0a1,1,0,0,1,.9-.685l5.2-.2a2.04,2.04,0,1,0-.073-4.079l-5.139-.2h0a.987.987,0,0,1-.9-.677l-1.362-4.144a1.109,1.109,0,0,1,.563-.881,1.142,1.142,0,0,1,1.15,0l12.023,6.942a1.134,1.134,0,0,1,.571.987,1.15,1.15,0,0,1-.571,1l-7,4.03h0a.816.816,0,0,0,.816,1.411l7-4.03a2.781,2.781,0,0,0,1.387-2.447,2.749,2.749,0,0,0-1.387-2.39l-12.032-6.934a2.782,2.782,0,0,0-4.16,2.447v.131l1.452,4.356a2.636,2.636,0,0,0,2.39,1.795l5.066.2h0a.375.375,0,0,1,.351.408.367.367,0,0,1-.285.424Z" transform="translate(-137.621)" fill="currentColor"/>
    </g>
  </symbol>
  <symbol id="edit-icon" xmlns="http://www.w3.org/2000/svg" viewBox="0 0 18.404 18.403">
    <path id="Path_17785" data-name="Path 17785" d="M276.249,106.4a3.387,3.387,0,0,0-2.41,1l-6.18,6.183a5.6,5.6,0,0,0-1.653,3.989v2.484h2.484a5.6,5.6,0,0,0,3.986-1.653l6.186-6.18a3.411,3.411,0,0,0-2.413-5.821Zm1.152,4.559-6.18,6.183a3.834,3.834,0,0,1-2.731,1.131h-.7v-.7a3.834,3.834,0,0,1,1.131-2.728l6.183-6.183a1.63,1.63,0,0,1,2.3,2.3Z" transform="translate(-261.256 -106.4)" fill="currentColor"/>
    <path id="Path_17786" data-name="Path 17786" d="M179.663,146.016h10.686a3.265,3.265,0,0,0,3.265-3.265V138h-1.781v4.749a1.484,1.484,0,0,1-1.484,1.484H179.663a1.484,1.484,0,0,1-1.484-1.484V132.065a1.484,1.484,0,0,1,1.484-1.484h4.749V128.8h-4.749a3.265,3.265,0,0,0-3.265,3.265V142.75a3.265,3.265,0,0,0,3.265,3.265Z" transform="translate(-176.398 -127.613)" fill="currentColor"/>
  </symbol>
  <symbol id="document-icon" xmlns="http://www.w3.org/2000/svg" viewBox="0 0 56.442 72.282">
    <g transform="translate(-153.498 -27.5)">
      <path id="Path_17772" data-name="Path 17772" d="M158.75,28A4.777,4.777,0,0,0,154,32.752V94.529a4.777,4.777,0,0,0,4.752,4.752h45.937a4.777,4.777,0,0,0,4.752-4.752V32.752A4.777,4.777,0,0,0,204.687,28Zm0,3.168h45.937a1.547,1.547,0,0,1,1.584,1.584V94.529a1.547,1.547,0,0,1-1.584,1.584H158.75a1.547,1.547,0,0,1-1.584-1.584V32.752a1.547,1.547,0,0,1,1.584-1.584Zm6.216,11.88a1.584,1.584,0,1,0,0,3.168h32.968a1.584,1.584,0,1,0,0-3.168Zm0,12.672a1.584,1.584,0,1,0,0,3.168h32.968a1.584,1.584,0,1,0,0-3.168Zm0,12.672a1.584,1.584,0,1,0,0,3.168h32.968a1.584,1.584,0,1,0,0-3.168Zm0,12.672a1.584,1.584,0,1,0,0,3.168h32.968a1.584,1.584,0,1,0,0-3.168Z" fill="currentColor" stroke="currentColor" stroke-width="1"/>
    </g>
  </symbol>
  <symbol id="right-arrow-icon" xmlns="http://www.w3.org/2000/svg" viewBox="0 0 29.88 17.802">
    <path id="Path_17673" data-name="Path 17673" d="M205.126,187.257l-7.444-7.909a.478.478,0,0,0-.662-.022.489.489,0,0,0-.022.662l6.7,7.124h-26.84a.465.465,0,0,0,0,.931H203.7l-6.7,7.124a.487.487,0,0,0,.022.662.473.473,0,0,0,.662-.022l7.444-7.909a.5.5,0,0,0,0-.64Z" transform="translate(-175.896 -178.703)" stroke="currentColor" stroke-width="1"/>
  </symbol>
  <symbol id="location-marker-icon" xmlns="http://www.w3.org/2000/svg" viewBox="0 0 16.278 22.522">
    <path id="Path_17602" data-name="Path 17602" d="M13.88,4.039A7.355,7.355,0,0,0,4.019.78,7.434,7.434,0,0,0,.761,10.643c.772,1.544,3.9,6.947,5.531,9.778a1.2,1.2,0,0,0,2.058,0c1.629-2.83,4.716-8.234,5.531-9.778a7.057,7.057,0,0,0,0-6.6ZM7.32,10.557a3.174,3.174,0,1,1,3.173-3.174A3.166,3.166,0,0,1,7.32,10.557Z" transform="translate(0.774 0.772)" fill="none" stroke="#000" stroke-width="1.5"/>
  </symbol>
</svg>
