<svg id="no-records" xmlns="http://www.w3.org/2000/svg" width="56.442" height="72.282" viewBox="0 0 56.442 72.282">
  <g id="noun-list-1559749" transform="translate(-153.498 -27.5)">
    <path id="Path_17772" data-name="Path 17772" d="M158.75,28A4.777,4.777,0,0,0,154,32.752V94.529a4.777,4.777,0,0,0,4.752,4.752h45.937a4.777,4.777,0,0,0,4.752-4.752V32.752A4.777,4.777,0,0,0,204.687,28Zm0,3.168h45.937a1.547,1.547,0,0,1,1.584,1.584V94.529a1.547,1.547,0,0,1-1.584,1.584H158.75a1.547,1.547,0,0,1-1.584-1.584V32.752a1.547,1.547,0,0,1,1.584-1.584Zm6.216,11.88a1.584,1.584,0,1,0,0,3.168h32.968a1.584,1.584,0,1,0,0-3.168Zm0,12.672a1.584,1.584,0,1,0,0,3.168h32.968a1.584,1.584,0,1,0,0-3.168Zm0,12.672a1.584,1.584,0,1,0,0,3.168h32.968a1.584,1.584,0,1,0,0-3.168Zm0,12.672a1.584,1.584,0,1,0,0,3.168h32.968a1.584,1.584,0,1,0,0-3.168Z" fill="#bababa" stroke="#bababb" stroke-width="1"/>
  </g>
</svg>
<svg id="conh" xmlns="http://www.w3.org/2000/svg" xmlns:xlink="http://www.w3.org/1999/xlink" width="70" height="70" viewBox="0 0 70 70">
  <defs>
    <clipPath id="clip-path">
      <rect id="Rectangle_2268" data-name="Rectangle 2268" width="70" height="70" transform="translate(266 1187)" fill="#fff" stroke="#707070" stroke-width="1"/>
    </clipPath>
  </defs>
  <g id="CONH" transform="translate(-266 -1187)" clip-path="url(#clip-path)">
    <g id="Group_46954" data-name="Group 46954" transform="translate(-27.248 232.738)">
      <path id="Path_17724" data-name="Path 17724" d="M179.975,128.088a3.541,3.541,0,0,0-5.184.023l-21.4,24.025A1.079,1.079,0,1,0,155,153.571l3.51-3.941v16.71a3.24,3.24,0,0,0,3.237,3.237h.688a10.146,10.146,0,0,1,.554-2.158h-1.242a1.08,1.08,0,0,1-1.079-1.079V147.208l15.713-17.64a1.4,1.4,0,0,1,2-.023l15.733,17.662V166.34a1.08,1.08,0,0,1-1.079,1.079h-1.221a9.522,9.522,0,0,1,.54,2.158h.681a3.24,3.24,0,0,0,3.237-3.237V149.631l3.51,3.94a1.079,1.079,0,1,0,1.612-1.435s-21.413-24.038-21.421-24.048Z" transform="translate(150.578 835.397)" fill="#1453cc"/>
      <path id="Path_17725" data-name="Path 17725" d="M266.966,322.036c-.023-.011-4.74-1.879-4.74-1.879v-.7a8.672,8.672,0,0,0,1.852-4.665c.035-.245.075-.49.115-.736.267-1.643.6-3.688-.928-5.425h0a6.7,6.7,0,0,0-4.584-2.353,11.878,11.878,0,0,0-1.493,0,6.7,6.7,0,0,0-4.549,2.35c-1.528,1.737-1.2,3.783-.928,5.426.04.246.08.491.114.735a8.69,8.69,0,0,0,1.811,4.6v.774L249,322.008c-3.568,1.421-3.991,4.518-4,6.727v5.574a3.24,3.24,0,0,0,3.237,3.237h19.421a3.24,3.24,0,0,0,3.237-3.237v-5.24c0-3.262-.644-5.458-3.933-7.032ZM255.794,320.9a6.915,6.915,0,0,0,1.658.423,3.811,3.811,0,0,0,1.05-.005,7.177,7.177,0,0,0,1.567-.4l.01,2.427-2.145,2.89-2.14-2.89Zm-1.535-10.844a4.553,4.553,0,0,1,3.123-1.627c.139-.013.989-.013,1.114,0a4.55,4.55,0,0,1,3.148,1.629c.814.925.689,1.991.418,3.653-.043.262-.085.524-.122.786-.424,3.057-1.472,4.371-3.736,4.686h0a1.505,1.505,0,0,1-.465,0c-2.261-.3-3.356-1.656-3.777-4.691-.036-.26-.079-.522-.121-.784-.271-1.663-.4-2.729.418-3.653Zm14.482,24.251a1.08,1.08,0,0,1-1.079,1.079H248.242a1.08,1.08,0,0,1-1.079-1.079v-5.57c.01-2.614.775-3.983,2.634-4.724l3.84-1.529v1.222a1.078,1.078,0,0,0,.212.642l3.217,4.346a1.079,1.079,0,0,0,.867.437h0a1.078,1.078,0,0,0,.866-.436l3.225-4.346h0a1.08,1.08,0,0,0,.212-.643v-1.226L266.068,324c2.3,1.112,2.674,2.409,2.674,5.07Z" transform="translate(70.02 678.217)" fill="#1453cc"/>
      <path id="Path_17726" data-name="Path 17726" d="M330.224,221.987a3.24,3.24,0,1,0-.949,2.288,3.237,3.237,0,0,0,.949-2.288Zm-4.316,0a1.079,1.079,0,1,1,1.079,1.079A1.078,1.078,0,0,1,325.909,221.987Z" transform="translate(0.983 754.934)" fill="#1453cc"/>
      <path id="Path_17727" data-name="Path 17727" d="M343.408,508.579a1.079,1.079,0,1,1-1.079-1.079,1.079,1.079,0,0,1,1.079,1.079" transform="translate(-14.358 501.789)" fill="#1453cc"/>
      <path id="Path_17728" data-name="Path 17728" d="M236.2,364.209a1.079,1.079,0,0,0-1.079-1.079h-2.158a1.079,1.079,0,1,0,0,2.158h2.158A1.079,1.079,0,0,0,236.2,364.209Z" transform="translate(81.526 628.357)" fill="#1453cc"/>
      <path id="Path_17729" data-name="Path 17729" d="M436.367,363.12h-2.158a1.079,1.079,0,1,0,0,2.158h2.158a1.079,1.079,0,0,0,0-2.158Z" transform="translate(-94.909 628.366)" fill="#1453cc"/>
    </g>
  </g>
</svg>
