<svg xmlns="http://www.w3.org/2000/svg" width="17.58" height="19.439" viewBox="0 0 17.58 19.439">
  <g id="noun-submit-4974725" transform="translate(-84.86 -140.607)">
    <path id="Path_17948" data-name="Path 17948" d="M231.458,150.726l-5.131.2a2.635,2.635,0,0,0-2.39,1.794l-1.452,4.421v.131a2.775,2.775,0,0,0,4.168,2.4l5.34-3.074a.819.819,0,1,0-.816-1.419l-5.348,3.116a1.142,1.142,0,0,1-1.7-.873l1.362-4.152h0a1,1,0,0,1,.9-.685l5.2-.2a2.04,2.04,0,1,0-.073-4.079l-5.139-.2h0a.987.987,0,0,1-.9-.677l-1.362-4.144a1.109,1.109,0,0,1,.563-.881,1.142,1.142,0,0,1,1.15,0l12.023,6.942a1.134,1.134,0,0,1,.571.987,1.15,1.15,0,0,1-.571,1l-7,4.03h0a.816.816,0,0,0,.816,1.411l7-4.03a2.781,2.781,0,0,0,1.387-2.447,2.749,2.749,0,0,0-1.387-2.39l-12.032-6.934a2.782,2.782,0,0,0-4.16,2.447v.131l1.452,4.356a2.636,2.636,0,0,0,2.39,1.795l5.066.2h0a.375.375,0,0,1,.351.408.367.367,0,0,1-.285.424Z" transform="translate(-137.621)" fill="blue"/>
  </g>
</svg>
